<svg width="70" height="60" viewBox="0 0 70 60" fill="none" xmlns="http://www.w3.org/2000/svg">
<path d="M2.8511 59.082C2.70294 59.2845 2.53008 59.4277 2.33253 59.5166C2.13498 59.6055 1.92755 59.65 1.69543 59.65C1.45837 59.65 1.24106 59.6104 1.04351 59.5314C0.845963 59.4524 0.678045 59.3388 0.53976 59.1956C0.401474 59.0524 0.287883 58.8795 0.208862 58.677C0.129842 58.4745 0.090332 58.2572 0.090332 58.0202C0.090332 57.7831 0.129842 57.5658 0.208862 57.3683C0.287883 57.1707 0.396536 56.9978 0.53976 56.8546C0.678045 56.7114 0.845963 56.5978 1.04351 56.5138C1.24106 56.4299 1.45837 56.3904 1.69543 56.3904C1.9078 56.3904 2.10041 56.4299 2.28314 56.504C2.46588 56.5781 2.62392 56.7015 2.7622 56.8793L2.52514 57.0769C2.42637 56.9336 2.30784 56.825 2.15474 56.7559C2.00657 56.6867 1.84853 56.6571 1.69049 56.6571C1.488 56.6571 1.30527 56.6916 1.14723 56.7608C0.984249 56.8299 0.845963 56.9287 0.732371 57.0472C0.61878 57.1707 0.529882 57.3139 0.470616 57.4818C0.411351 57.6498 0.37678 57.8276 0.37678 58.0202C0.37678 58.2128 0.406412 58.3906 0.470616 58.5585C0.53482 58.7264 0.61878 58.8696 0.732371 58.9931C0.845963 59.1166 0.984249 59.2104 1.14723 59.2795C1.31021 59.3487 1.49294 59.3833 1.69049 59.3833C1.76951 59.3833 1.85347 59.3734 1.93743 59.3536C2.02139 59.3339 2.10535 59.3042 2.18437 59.2647C2.26339 59.2252 2.34241 59.1758 2.41649 59.1166C2.49057 59.0573 2.55478 58.9832 2.6091 58.8993L2.8511 59.082Z" fill="black"/>
<path d="M5.43408 58.0202C5.43408 57.7831 5.47359 57.5658 5.55261 57.3683C5.63163 57.1707 5.74029 56.9978 5.88351 56.8546C6.0218 56.7114 6.18971 56.5978 6.38726 56.5138C6.58482 56.4299 6.80212 56.3904 7.03918 56.3904C7.27624 56.3904 7.49355 56.4299 7.6911 56.5138C7.88865 56.5978 8.05657 56.7065 8.19485 56.8546C8.33314 56.9978 8.44673 57.1707 8.52081 57.3683C8.59983 57.5658 8.63935 57.7831 8.63935 58.0202C8.63935 58.2572 8.59983 58.4745 8.52081 58.677C8.44179 58.8746 8.33314 59.0474 8.19485 59.1956C8.05657 59.3388 7.88865 59.4524 7.6911 59.5314C7.49355 59.6104 7.27624 59.65 7.03918 59.65C6.80212 59.65 6.58482 59.6104 6.38726 59.5314C6.18971 59.4524 6.0218 59.3388 5.88351 59.1956C5.74522 59.0524 5.63163 58.8795 5.55261 58.677C5.47359 58.4745 5.43408 58.2572 5.43408 58.0202ZM5.72547 58.0202C5.72547 58.2128 5.7551 58.3906 5.81931 58.5585C5.88351 58.7264 5.96747 58.8696 6.08106 58.9931C6.19465 59.1166 6.33294 59.2104 6.49592 59.2795C6.6589 59.3487 6.84163 59.3833 7.03918 59.3833C7.23673 59.3833 7.42441 59.3487 7.58245 59.2795C7.74543 59.2104 7.88371 59.1116 7.99731 58.9931C8.1109 58.8746 8.19979 58.7264 8.25906 58.5585C8.31832 58.3906 8.3529 58.2128 8.3529 58.0202C8.3529 57.8276 8.32326 57.6498 8.25906 57.4818C8.19486 57.3139 8.1109 57.1707 7.99731 57.0472C7.88371 56.9238 7.74543 56.8299 7.58245 56.7608C7.41947 56.6916 7.23673 56.6571 7.03918 56.6571C6.84163 56.6571 6.65396 56.6916 6.49592 56.7608C6.33294 56.8299 6.19465 56.9287 6.08106 57.0472C5.96747 57.1707 5.87857 57.3139 5.81931 57.4818C5.76004 57.6498 5.72547 57.8276 5.72547 58.0202Z" fill="black"/>
<path d="M11.5137 56.4692H11.9483L13.0793 59.072L14.2102 56.4692H14.6202V59.5708H14.3337V56.8396H14.3238L13.1435 59.5708H13.0151L11.8149 56.8396H11.8051V59.5708H11.5186V56.4692H11.5137Z" fill="black"/>
<path d="M17.6576 56.4692H18.0922L19.2232 59.072L20.3542 56.4692H20.7641V59.5708H20.4727V56.8396H20.4628L19.2825 59.5708H19.154L17.9539 56.8396H17.944V59.5708H17.6576V56.4692Z" fill="black"/>
<path d="M26.0387 58.3857C26.0387 58.5536 26.0189 58.7116 25.9794 58.8647C25.9399 59.0178 25.8757 59.1512 25.7868 59.2697C25.6979 59.3882 25.5794 59.4771 25.4361 59.5512C25.2929 59.6204 25.1151 59.6549 24.9028 59.6549C24.6904 59.6549 24.5175 59.6204 24.3694 59.5512C24.2262 59.4821 24.1076 59.3882 24.0187 59.2697C23.9298 59.1512 23.8656 59.0178 23.8261 58.8647C23.7866 58.7116 23.7668 58.5536 23.7668 58.3857V56.4744H24.0533V58.3116C24.0533 58.4202 24.0632 58.5388 24.0829 58.6672C24.1027 58.7956 24.1422 58.9092 24.2015 59.0178C24.2607 59.1265 24.3447 59.2154 24.4533 59.2845C24.562 59.3537 24.7101 59.3882 24.8879 59.3882C25.0707 59.3882 25.2139 59.3537 25.3226 59.2845C25.4312 59.2154 25.5152 59.1265 25.5744 59.0178C25.6337 58.9092 25.6732 58.7906 25.693 58.6672C25.7127 58.5437 25.7226 58.4252 25.7226 58.3116V56.4744H26.009V58.3857H26.0387Z" fill="black"/>
<path d="M29.0858 56.4692H29.4562L31.3428 59.1855H31.3527V56.4692H31.6392V59.5708H31.2687L29.3821 56.8545H29.3723V59.5708H29.0858V56.4692Z" fill="black"/>
<path d="M34.7457 56.4692H35.0322V59.5708H34.7457V56.4692Z" fill="black"/>
<path d="M40.6919 59.082C40.5438 59.2845 40.3709 59.4277 40.1733 59.5166C39.9758 59.6055 39.7684 59.65 39.5362 59.65C39.2992 59.65 39.0819 59.6104 38.8843 59.5314C38.6868 59.4524 38.5189 59.3388 38.3806 59.1956C38.2423 59.0524 38.1287 58.8795 38.0497 58.677C37.9707 58.4745 37.9312 58.2572 37.9312 58.0202C37.9312 57.7831 37.9707 57.5658 38.0497 57.3683C38.1287 57.1707 38.2374 56.9978 38.3806 56.8546C38.5189 56.7114 38.6868 56.5978 38.8843 56.5138C39.0819 56.4299 39.2992 56.3904 39.5362 56.3904C39.7486 56.3904 39.9412 56.4299 40.124 56.504C40.3067 56.5781 40.4647 56.7015 40.603 56.8793L40.366 57.0769C40.2672 56.9336 40.1487 56.825 39.9956 56.7559C39.8474 56.6867 39.6893 56.6571 39.5313 56.6571C39.3288 56.6571 39.1461 56.6916 38.988 56.7608C38.8251 56.8299 38.6868 56.9287 38.5732 57.0472C38.4596 57.1707 38.3707 57.3139 38.3114 57.4818C38.2522 57.6498 38.2176 57.8276 38.2176 58.0202C38.2176 58.2128 38.2472 58.3906 38.3114 58.5585C38.3756 58.7264 38.4596 58.8696 38.5732 58.9931C38.6868 59.1166 38.8251 59.2104 38.988 59.2795C39.151 59.3487 39.3338 59.3833 39.5313 59.3833C39.6103 59.3833 39.6943 59.3734 39.7782 59.3536C39.8622 59.3339 39.9462 59.3042 40.0252 59.2647C40.1042 59.2252 40.1832 59.1758 40.2573 59.1166C40.3314 59.0573 40.3956 58.9832 40.4499 58.8993L40.6919 59.082Z" fill="black"/>
<path d="M44.4256 56.4692H44.7219L46.0258 59.5708H45.6998L45.364 58.746H43.7243L43.3737 59.5708H43.0724L44.4256 56.4692ZM44.559 56.7853L43.8379 58.4842H45.2603L44.559 56.7853Z" fill="black"/>
<path d="M49.1175 56.731H48.0557V56.4692H50.4658V56.731H49.404V59.5659H49.1175V56.731Z" fill="black"/>
<path d="M53.1969 56.4692H53.4833V59.5708H53.1969V56.4692Z" fill="black"/>
<path d="M56.3873 58.0202C56.3873 57.7831 56.4268 57.5658 56.5059 57.3683C56.5849 57.1707 56.6935 56.9978 56.8368 56.8546C56.975 56.7114 57.143 56.5978 57.3405 56.5138C57.5381 56.4299 57.7554 56.3904 57.9924 56.3904C58.2295 56.3904 58.4468 56.4299 58.6443 56.5138C58.8419 56.5978 59.0098 56.7065 59.1481 56.8546C59.2864 56.9978 59.4 57.1707 59.4741 57.3683C59.5531 57.5658 59.5926 57.7831 59.5926 58.0202C59.5926 58.2572 59.5531 58.4745 59.4741 58.677C59.395 58.8746 59.2864 59.0474 59.1481 59.1956C59.0098 59.3388 58.8419 59.4524 58.6443 59.5314C58.4468 59.6104 58.2295 59.65 57.9924 59.65C57.7554 59.65 57.5381 59.6104 57.3405 59.5314C57.143 59.4524 56.975 59.3388 56.8368 59.1956C56.6985 59.0524 56.5849 58.8795 56.5059 58.677C56.4268 58.4745 56.3873 58.2572 56.3873 58.0202ZM56.6787 58.0202C56.6787 58.2128 56.7083 58.3906 56.7726 58.5585C56.8368 58.7264 56.9207 58.8696 57.0343 58.9931C57.1479 59.1166 57.2862 59.2104 57.4492 59.2795C57.6121 59.3487 57.7949 59.3833 57.9924 59.3833C58.19 59.3833 58.3776 59.3487 58.5357 59.2795C58.6987 59.2104 58.837 59.1116 58.9505 58.9931C59.0641 58.8746 59.153 58.7264 59.2123 58.5585C59.2716 58.3906 59.3061 58.2128 59.3061 58.0202C59.3061 57.8276 59.2765 57.6498 59.2123 57.4818C59.1481 57.3139 59.0641 57.1707 58.9505 57.0472C58.837 56.9238 58.6987 56.8299 58.5357 56.7608C58.3727 56.6916 58.19 56.6571 57.9924 56.6571C57.7949 56.6571 57.6072 56.6916 57.4492 56.7608C57.2862 56.8299 57.1479 56.9287 57.0343 57.0472C56.9207 57.1707 56.8318 57.3139 56.7726 57.4818C56.7133 57.6498 56.6787 57.8276 56.6787 58.0202Z" fill="black"/>
<path d="M62.4966 56.4692H62.867L64.7536 59.1855H64.7635V56.4692H65.0499V59.5708H64.6795L62.7929 56.8545H62.783V59.5708H62.4966V56.4692Z" fill="black"/>
<path d="M68.2404 58.9982C68.3145 59.1316 68.4133 59.2254 68.5367 59.2896C68.6602 59.3538 68.7936 59.3884 68.9516 59.3884C69.0454 59.3884 69.1393 59.3736 69.2232 59.344C69.3072 59.3143 69.3813 59.2748 69.4455 59.2205C69.5097 59.1662 69.5591 59.102 69.5936 59.0279C69.6282 58.9538 69.648 58.8698 69.648 58.776C69.648 58.6673 69.6233 58.5784 69.5788 58.5093C69.5344 58.4402 69.4751 58.3809 69.3961 58.3364C69.322 58.292 69.2331 58.2525 69.1393 58.2179C69.0454 58.1883 68.9467 58.1537 68.8479 58.1241C68.7491 58.0895 68.6503 58.0549 68.5565 58.0154C68.4627 57.9759 68.3738 57.9216 68.2997 57.8574C68.2256 57.7932 68.1614 57.7092 68.117 57.6104C68.0725 57.5117 68.0478 57.3882 68.0478 57.245C68.0478 57.1067 68.0725 56.9882 68.1268 56.8795C68.1812 56.7709 68.2552 56.682 68.3441 56.6128C68.438 56.5437 68.5417 56.4893 68.6602 56.4498C68.7787 56.4153 68.9072 56.3955 69.0356 56.3955C69.2035 56.3955 69.3615 56.4251 69.5047 56.4844C69.648 56.5437 69.7714 56.6424 69.8801 56.7857L69.6282 56.9635C69.5541 56.8598 69.4702 56.7857 69.3714 56.7363C69.2726 56.6869 69.159 56.6573 69.0257 56.6573C68.9318 56.6573 68.843 56.6721 68.759 56.6968C68.675 56.7215 68.601 56.756 68.5367 56.8054C68.4725 56.8548 68.4232 56.9141 68.3836 56.9882C68.3441 57.0622 68.3244 57.1462 68.3244 57.245C68.3244 57.3981 68.3639 57.5166 68.4429 57.6006C68.5219 57.6845 68.6207 57.7487 68.7392 57.7981C68.8578 57.8475 68.9862 57.887 69.1245 57.9265C69.2627 57.9611 69.3911 58.0105 69.5097 58.0747C69.6282 58.134 69.727 58.2229 69.806 58.3315C69.885 58.4402 69.9245 58.5933 69.9245 58.7859C69.9245 58.9242 69.8998 59.0526 69.8455 59.1563C69.7912 59.26 69.722 59.3538 69.6331 59.4279C69.5442 59.502 69.4405 59.5563 69.3269 59.5958C69.2084 59.6353 69.0899 59.6551 68.9615 59.6551C68.759 59.6551 68.5713 59.6205 68.3985 59.5464C68.2256 59.4773 68.0774 59.3538 67.954 59.1859L68.2404 58.9982Z" fill="black"/>
<path d="M0.134766 49.7083H1.78925C2.09052 49.7083 2.33746 49.7478 2.53501 49.8317C2.73256 49.9157 2.88566 50.0194 2.99925 50.1429C3.11284 50.2663 3.19186 50.4096 3.23631 50.5676C3.28076 50.7256 3.30051 50.8787 3.30051 51.022C3.30051 51.1751 3.27582 51.3183 3.22149 51.4566C3.16717 51.5949 3.09309 51.7233 2.99431 51.8369C2.89554 51.9505 2.77207 52.0443 2.62884 52.1233C2.48562 52.2023 2.32264 52.2468 2.14484 52.2665L3.48325 54.4149H2.68317L1.48799 52.3406H0.776805V54.4149H0.139704V49.7083H0.134766ZM0.776805 51.7875H1.6164C1.73987 51.7875 1.86333 51.7776 1.9868 51.7578C2.11027 51.7381 2.21892 51.7035 2.31276 51.6492C2.4066 51.5949 2.48562 51.5208 2.53995 51.422C2.59427 51.3232 2.62884 51.1948 2.62884 51.0318C2.62884 50.8689 2.59921 50.7405 2.53995 50.6417C2.48068 50.5429 2.4066 50.4639 2.31276 50.4145C2.21892 50.3602 2.11027 50.3256 1.9868 50.3058C1.86333 50.2861 1.73987 50.2762 1.6164 50.2762H0.776805V51.7875Z" fill="black"/>
<path d="M6.328 49.7083H6.90584L8.92085 54.4198H8.1751L7.70098 53.2543H5.45878L4.99453 54.4198H4.24878L6.328 49.7083ZM7.47379 52.6962L6.59469 50.533H6.57988L5.68596 52.6962H7.47379Z" fill="black"/>
<path d="M13.4695 50.7256C13.3361 50.5527 13.1682 50.4194 12.9657 50.3255C12.7632 50.2317 12.5509 50.1872 12.3336 50.1872C12.0669 50.1872 11.8249 50.2366 11.6125 50.3354C11.4001 50.4342 11.2125 50.5725 11.0593 50.7453C10.9062 50.9182 10.7877 51.1207 10.7038 51.3528C10.6198 51.5849 10.5753 51.8368 10.5753 52.1035C10.5753 52.3504 10.6149 52.5875 10.6939 52.8097C10.7729 53.032 10.8914 53.2246 11.0396 53.3975C11.1927 53.5654 11.3754 53.6987 11.5927 53.7975C11.81 53.8963 12.057 53.9457 12.3336 53.9457C12.6052 53.9457 12.8422 53.8913 13.0447 53.7777C13.2472 53.6641 13.4201 53.511 13.5633 53.3135L14.1016 53.7185C14.0671 53.7679 14.0029 53.837 13.914 53.9259C13.8251 54.0148 13.7065 54.1086 13.5633 54.1975C13.4151 54.2864 13.2423 54.3704 13.0349 54.4346C12.8274 54.5037 12.5904 54.5383 12.3187 54.5383C11.9483 54.5383 11.6125 54.4692 11.3112 54.3259C11.01 54.1827 10.7581 53.995 10.5457 53.7679C10.3333 53.5357 10.1753 53.2789 10.0617 52.9875C9.95306 52.6961 9.8938 52.4048 9.8938 52.1035C9.8938 51.738 9.95306 51.4022 10.0716 51.096C10.1901 50.7898 10.358 50.5231 10.5753 50.2959C10.7927 50.0737 11.0495 49.8959 11.3507 49.7724C11.652 49.6489 11.9829 49.5847 12.3484 49.5847C12.6595 49.5847 12.9657 49.644 13.262 49.7625C13.5633 49.881 13.8053 50.0687 13.9979 50.3157L13.4695 50.7256Z" fill="black"/>
<path d="M15.5239 49.7083H16.161V51.664H18.6008V49.7083H19.2379V54.4198H18.6008V52.2665H16.161V54.4198H15.5239V49.7083Z" fill="black"/>
<path d="M21.1047 49.7083H24.147V50.3058H21.7468V51.7085H23.984V52.3061H21.7468V53.8173H24.2655V54.4149H21.1047V49.7083Z" fill="black"/>
<path d="M25.8213 49.7083H26.4584V53.8222H28.6216V54.4198H25.8213V49.7083Z" fill="black"/>
<path d="M32.4293 49.7083H33.0664V51.664H35.5062V49.7083H36.1433V54.4198H35.5062V52.2665H33.0664V54.4198H32.4293V49.7083Z" fill="black"/>
<path d="M39.4868 49.7083H40.0647L42.0797 54.4198H41.3339L40.8598 53.2543H38.6176L38.1533 54.4198H37.4076L39.4868 49.7083ZM40.6277 52.6962L39.7486 50.533H39.7338L38.8398 52.6962H40.6277Z" fill="black"/>
<path d="M43.3441 49.7083H44.9986C45.2999 49.7083 45.5468 49.7478 45.7444 49.8317C45.9419 49.9157 46.095 50.0194 46.2086 50.1429C46.3222 50.2663 46.4012 50.4096 46.4457 50.5676C46.4901 50.7256 46.5099 50.8787 46.5099 51.022C46.5099 51.1751 46.4852 51.3183 46.4308 51.4566C46.3765 51.5949 46.3024 51.7233 46.2037 51.8369C46.1049 51.9505 45.9814 52.0443 45.8382 52.1233C45.695 52.2023 45.532 52.2468 45.3542 52.2665L46.6926 54.4149H45.8925L44.6973 52.3406H43.9862V54.4149H43.3491V49.7083H43.3441ZM43.9812 51.7875H44.8208C44.9443 51.7875 45.0677 51.7776 45.1912 51.7578C45.3147 51.7381 45.4233 51.7035 45.5172 51.6492C45.611 51.5949 45.69 51.5208 45.7444 51.422C45.7987 51.3232 45.8333 51.1948 45.8333 51.0318C45.8333 50.8689 45.8036 50.7405 45.7444 50.6417C45.6851 50.5429 45.611 50.4639 45.5172 50.4145C45.4233 50.3602 45.3147 50.3256 45.1912 50.3058C45.0677 50.2861 44.9443 50.2762 44.8208 50.2762H43.9812V51.7875Z" fill="black"/>
<path d="M48.0607 49.7083H49.7151C50.0164 49.7083 50.2634 49.7478 50.4609 49.8317C50.6585 49.9157 50.8116 50.0194 50.9252 50.1429C51.0387 50.2663 51.1178 50.4096 51.1622 50.5676C51.2067 50.7256 51.2264 50.8787 51.2264 51.022C51.2264 51.1751 51.2017 51.3183 51.1474 51.4566C51.0931 51.5949 51.019 51.7233 50.9202 51.8369C50.8214 51.9505 50.698 52.0443 50.5547 52.1233C50.4115 52.2023 50.2485 52.2468 50.0707 52.2665L51.4091 54.4149H50.6091L49.4139 52.3406H48.7027V54.4149H48.0656V49.7083H48.0607ZM48.6978 51.7875H49.5374C49.6608 51.7875 49.7843 51.7776 49.9078 51.7578C50.0312 51.7381 50.1399 51.7035 50.2337 51.6492C50.3276 51.5949 50.4066 51.5208 50.4609 51.422C50.5152 51.3232 50.5498 51.1948 50.5498 51.0318C50.5498 50.8689 50.5202 50.7405 50.4609 50.6417C50.4016 50.5429 50.3276 50.4639 50.2337 50.4145C50.1399 50.3602 50.0312 50.3256 49.9078 50.3058C49.7843 50.2861 49.6608 50.2762 49.5374 50.2762H48.6978V51.7875Z" fill="black"/>
<path d="M52.7771 49.7083H53.4142V54.4198H52.7771V49.7083Z" fill="black"/>
<path d="M55.4194 53.4371C55.533 53.6099 55.6812 53.7384 55.8639 53.8174C56.0467 53.8964 56.2294 53.9408 56.4171 53.9408C56.5257 53.9408 56.6344 53.926 56.743 53.8915C56.8517 53.8569 56.9554 53.8075 57.0443 53.7433C57.1332 53.6791 57.2073 53.5951 57.2665 53.4963C57.3258 53.3976 57.3505 53.284 57.3505 53.1556C57.3505 52.9728 57.2912 52.8346 57.1776 52.7407C57.064 52.6469 56.9208 52.5679 56.7479 52.5037C56.5751 52.4395 56.3924 52.3752 56.1899 52.316C55.9874 52.2567 55.7997 52.1728 55.6318 52.069C55.4639 51.9653 55.3157 51.8221 55.2021 51.6394C55.0885 51.4616 55.0293 51.2146 55.0293 50.9084C55.0293 50.7702 55.0589 50.6269 55.1182 50.4689C55.1774 50.3108 55.2713 50.1726 55.3997 50.0442C55.5281 49.9157 55.6911 49.8071 55.8935 49.7231C56.096 49.6392 56.338 49.5947 56.6195 49.5947C56.8764 49.5947 57.1233 49.6293 57.3604 49.7034C57.5974 49.7725 57.7999 49.9207 57.9777 50.138L57.4591 50.6121C57.3801 50.4886 57.2665 50.3899 57.1184 50.3108C56.9702 50.2368 56.8072 50.1973 56.6195 50.1973C56.4418 50.1973 56.2936 50.222 56.1751 50.2664C56.0565 50.3108 55.9627 50.3751 55.8935 50.4442C55.8244 50.5183 55.7701 50.5973 55.7454 50.6813C55.7158 50.7652 55.7009 50.8442 55.7009 50.9134C55.7009 51.1109 55.7602 51.264 55.8738 51.3727C55.9874 51.4813 56.1306 51.5653 56.3035 51.6344C56.4763 51.7036 56.6591 51.7628 56.8615 51.8122C57.064 51.8666 57.2517 51.9406 57.4196 52.0345C57.5925 52.1283 57.7357 52.2567 57.8493 52.4197C57.9629 52.5827 58.0221 52.8049 58.0221 53.0864C58.0221 53.3136 57.9777 53.5161 57.8937 53.6988C57.8098 53.8816 57.6913 54.0347 57.5431 54.1581C57.3949 54.2816 57.2221 54.3755 57.0245 54.4446C56.827 54.5088 56.6146 54.5434 56.3874 54.5434C56.0862 54.5434 55.7997 54.489 55.5281 54.3853C55.2564 54.2816 55.0441 54.1137 54.8811 53.8915L55.4194 53.4371Z" fill="black"/>
<path d="M61.7904 54.5385C61.4299 54.5385 61.099 54.4743 60.7977 54.3508C60.4964 54.2224 60.2396 54.0496 60.0223 53.8273C59.805 53.6051 59.6371 53.3433 59.5185 53.042C59.4 52.7408 59.3358 52.4148 59.3358 52.0642C59.3358 51.7135 59.3951 51.3876 59.5185 51.0863C59.642 50.785 59.8099 50.5233 60.0223 50.301C60.2347 50.0788 60.4964 49.9059 60.7977 49.7775C61.099 49.6491 61.4299 49.5898 61.7904 49.5898C62.1509 49.5898 62.4818 49.654 62.7831 49.7775C63.0843 49.9059 63.3412 50.0788 63.5585 50.301C63.7758 50.5233 63.9437 50.785 64.0622 51.0863C64.1857 51.3876 64.2449 51.7135 64.2449 52.0642C64.2449 52.4148 64.1857 52.7408 64.0622 53.042C63.9387 53.3433 63.7708 53.6051 63.5585 53.8273C63.3412 54.0496 63.0843 54.2224 62.7831 54.3508C62.4818 54.4743 62.1509 54.5385 61.7904 54.5385ZM61.7904 53.9409C62.062 53.9409 62.304 53.8915 62.5213 53.7927C62.7386 53.694 62.9263 53.5606 63.0794 53.3878C63.2325 53.2198 63.356 53.0223 63.4399 52.7902C63.5239 52.563 63.5683 52.321 63.5683 52.0592C63.5683 51.8024 63.5239 51.5604 63.4399 51.3332C63.356 51.106 63.2374 50.9085 63.0794 50.7356C62.9263 50.5677 62.7386 50.4344 62.5213 50.3356C62.304 50.2368 62.062 50.1874 61.7904 50.1874C61.5188 50.1874 61.2767 50.2368 61.0594 50.3356C60.8421 50.4344 60.6545 50.5677 60.5014 50.7356C60.3483 50.9036 60.2248 51.1011 60.1408 51.3332C60.0569 51.5604 60.0124 51.8024 60.0124 52.0592C60.0124 52.316 60.0569 52.558 60.1408 52.7902C60.2248 53.0173 60.3433 53.2149 60.5014 53.3878C60.6545 53.5557 60.8421 53.689 61.0594 53.7927C61.2767 53.8915 61.5188 53.9409 61.7904 53.9409Z" fill="black"/>
<path d="M65.8154 49.7083H66.655L69.2479 53.5802H69.2627V49.7083H69.8998V54.4198H69.0898L66.4673 50.5478H66.4525V54.4198H65.8154V49.7083Z" fill="black"/>
<path d="M68.8344 40.3591C67.6737 40.6109 66.4144 40.7344 65.1895 40.7344C60.2261 40.7344 55.7664 38.8527 52.4722 35.6475C49.2077 32.4768 47.2914 28.0813 47.2914 23.2413C47.2914 18.4655 49.2373 14.0404 52.5364 10.7758C55.8651 7.44711 60.3249 5.5605 65.1945 5.5605C66.3897 5.5605 67.6145 5.68397 68.7751 5.90621L69.8419 0.819281C68.301 0.5032 66.765 0.350098 65.1945 0.350098C58.9124 0.350098 53.1686 2.86393 48.8323 7.13597C48.2841 7.67923 47.7705 8.24719 47.2816 8.83984V0.661241H41.9724V28.0763H24.7608V0.661241H19.4516H17.7576C8.3048 0.661241 0.862077 7.78789 0.862077 16.8653C0.862077 22.7375 3.9093 27.8887 8.77398 30.8717L0.106445 45.6633H6.23052L13.7374 32.8818C14.9623 33.1633 16.2167 33.3213 17.4415 33.351L19.4516 33.3806V45.6287V45.6584H24.7608V45.6287V33.3806H41.9724V45.6584H47.2816V37.7218C47.7507 38.2848 48.2446 38.828 48.7681 39.3466C53.0402 43.5248 58.7889 45.9399 65.1945 45.9399C66.7946 45.9399 68.3652 45.7818 69.9061 45.4361L68.8344 40.3591ZM17.5057 28.0813C11.1298 27.9578 6.16632 23.024 6.16632 16.8703C6.16632 10.682 11.1298 5.97042 17.7527 5.97042H19.4467V28.0813H17.5057Z" fill="black"/>
</svg>
